# Fanta-style 355 ml can (66 mm x 122 mm) for the RoboCup@Home sim, generated.
mtllib fanta_can.mtl
o fanta_can
v 0.03300 0.00000 0.00000
v 0.03300 0.00000 0.12200
v 0.03284 0.00323 0.00000
v 0.03284 0.00323 0.12200
v 0.03237 0.00644 0.00000
v 0.03237 0.00644 0.12200
v 0.03158 0.00958 0.00000
v 0.03158 0.00958 0.12200
v 0.03049 0.01263 0.00000
v 0.03049 0.01263 0.12200
v 0.02910 0.01556 0.00000
v 0.02910 0.01556 0.12200
v 0.02744 0.01833 0.00000
v 0.02744 0.01833 0.12200
v 0.02551 0.02093 0.00000
v 0.02551 0.02093 0.12200
v 0.02333 0.02333 0.00000
v 0.02333 0.02333 0.12200
v 0.02093 0.02551 0.00000
v 0.02093 0.02551 0.12200
v 0.01833 0.02744 0.00000
v 0.01833 0.02744 0.12200
v 0.01556 0.02910 0.00000
v 0.01556 0.02910 0.12200
v 0.01263 0.03049 0.00000
v 0.01263 0.03049 0.12200
v 0.00958 0.03158 0.00000
v 0.00958 0.03158 0.12200
v 0.00644 0.03237 0.00000
v 0.00644 0.03237 0.12200
v 0.00323 0.03284 0.00000
v 0.00323 0.03284 0.12200
v 0.00000 0.03300 0.00000
v 0.00000 0.03300 0.12200
v -0.00323 0.03284 0.00000
v -0.00323 0.03284 0.12200
v -0.00644 0.03237 0.00000
v -0.00644 0.03237 0.12200
v -0.00958 0.03158 0.00000
v -0.00958 0.03158 0.12200
v -0.01263 0.03049 0.00000
v -0.01263 0.03049 0.12200
v -0.01556 0.02910 0.00000
v -0.01556 0.02910 0.12200
v -0.01833 0.02744 0.00000
v -0.01833 0.02744 0.12200
v -0.02093 0.02551 0.00000
v -0.02093 0.02551 0.12200
v -0.02333 0.02333 0.00000
v -0.02333 0.02333 0.12200
v -0.02551 0.02093 0.00000
v -0.02551 0.02093 0.12200
v -0.02744 0.01833 0.00000
v -0.02744 0.01833 0.12200
v -0.02910 0.01556 0.00000
v -0.02910 0.01556 0.12200
v -0.03049 0.01263 0.00000
v -0.03049 0.01263 0.12200
v -0.03158 0.00958 0.00000
v -0.03158 0.00958 0.12200
v -0.03237 0.00644 0.00000
v -0.03237 0.00644 0.12200
v -0.03284 0.00323 0.00000
v -0.03284 0.00323 0.12200
v -0.03300 0.00000 0.00000
v -0.03300 0.00000 0.12200
v -0.03284 -0.00323 0.00000
v -0.03284 -0.00323 0.12200
v -0.03237 -0.00644 0.00000
v -0.03237 -0.00644 0.12200
v -0.03158 -0.00958 0.00000
v -0.03158 -0.00958 0.12200
v -0.03049 -0.01263 0.00000
v -0.03049 -0.01263 0.12200
v -0.02910 -0.01556 0.00000
v -0.02910 -0.01556 0.12200
v -0.02744 -0.01833 0.00000
v -0.02744 -0.01833 0.12200
v -0.02551 -0.02093 0.00000
v -0.02551 -0.02093 0.12200
v -0.02333 -0.02333 0.00000
v -0.02333 -0.02333 0.12200
v -0.02093 -0.02551 0.00000
v -0.02093 -0.02551 0.12200
v -0.01833 -0.02744 0.00000
v -0.01833 -0.02744 0.12200
v -0.01556 -0.02910 0.00000
v -0.01556 -0.02910 0.12200
v -0.01263 -0.03049 0.00000
v -0.01263 -0.03049 0.12200
v -0.00958 -0.03158 0.00000
v -0.00958 -0.03158 0.12200
v -0.00644 -0.03237 0.00000
v -0.00644 -0.03237 0.12200
v -0.00323 -0.03284 0.00000
v -0.00323 -0.03284 0.12200
v -0.00000 -0.03300 0.00000
v -0.00000 -0.03300 0.12200
v 0.00323 -0.03284 0.00000
v 0.00323 -0.03284 0.12200
v 0.00644 -0.03237 0.00000
v 0.00644 -0.03237 0.12200
v 0.00958 -0.03158 0.00000
v 0.00958 -0.03158 0.12200
v 0.01263 -0.03049 0.00000
v 0.01263 -0.03049 0.12200
v 0.01556 -0.02910 0.00000
v 0.01556 -0.02910 0.12200
v 0.01833 -0.02744 0.00000
v 0.01833 -0.02744 0.12200
v 0.02093 -0.02551 0.00000
v 0.02093 -0.02551 0.12200
v 0.02333 -0.02333 0.00000
v 0.02333 -0.02333 0.12200
v 0.02551 -0.02093 0.00000
v 0.02551 -0.02093 0.12200
v 0.02744 -0.01833 0.00000
v 0.02744 -0.01833 0.12200
v 0.02910 -0.01556 0.00000
v 0.02910 -0.01556 0.12200
v 0.03049 -0.01263 0.00000
v 0.03049 -0.01263 0.12200
v 0.03158 -0.00958 0.00000
v 0.03158 -0.00958 0.12200
v 0.03237 -0.00644 0.00000
v 0.03237 -0.00644 0.12200
v 0.03284 -0.00323 0.00000
v 0.03284 -0.00323 0.12200
v 0.03300 -0.00000 0.00000
v 0.03300 -0.00000 0.12200
v 0.00000 0.00000 0.00000
v 0.03300 0.00000 0.00000
v 0.03284 0.00323 0.00000
v 0.03237 0.00644 0.00000
v 0.03158 0.00958 0.00000
v 0.03049 0.01263 0.00000
v 0.02910 0.01556 0.00000
v 0.02744 0.01833 0.00000
v 0.02551 0.02093 0.00000
v 0.02333 0.02333 0.00000
v 0.02093 0.02551 0.00000
v 0.01833 0.02744 0.00000
v 0.01556 0.02910 0.00000
v 0.01263 0.03049 0.00000
v 0.00958 0.03158 0.00000
v 0.00644 0.03237 0.00000
v 0.00323 0.03284 0.00000
v 0.00000 0.03300 0.00000
v -0.00323 0.03284 0.00000
v -0.00644 0.03237 0.00000
v -0.00958 0.03158 0.00000
v -0.01263 0.03049 0.00000
v -0.01556 0.02910 0.00000
v -0.01833 0.02744 0.00000
v -0.02093 0.02551 0.00000
v -0.02333 0.02333 0.00000
v -0.02551 0.02093 0.00000
v -0.02744 0.01833 0.00000
v -0.02910 0.01556 0.00000
v -0.03049 0.01263 0.00000
v -0.03158 0.00958 0.00000
v -0.03237 0.00644 0.00000
v -0.03284 0.00323 0.00000
v -0.03300 0.00000 0.00000
v -0.03284 -0.00323 0.00000
v -0.03237 -0.00644 0.00000
v -0.03158 -0.00958 0.00000
v -0.03049 -0.01263 0.00000
v -0.02910 -0.01556 0.00000
v -0.02744 -0.01833 0.00000
v -0.02551 -0.02093 0.00000
v -0.02333 -0.02333 0.00000
v -0.02093 -0.02551 0.00000
v -0.01833 -0.02744 0.00000
v -0.01556 -0.02910 0.00000
v -0.01263 -0.03049 0.00000
v -0.00958 -0.03158 0.00000
v -0.00644 -0.03237 0.00000
v -0.00323 -0.03284 0.00000
v -0.00000 -0.03300 0.00000
v 0.00323 -0.03284 0.00000
v 0.00644 -0.03237 0.00000
v 0.00958 -0.03158 0.00000
v 0.01263 -0.03049 0.00000
v 0.01556 -0.02910 0.00000
v 0.01833 -0.02744 0.00000
v 0.02093 -0.02551 0.00000
v 0.02333 -0.02333 0.00000
v 0.02551 -0.02093 0.00000
v 0.02744 -0.01833 0.00000
v 0.02910 -0.01556 0.00000
v 0.03049 -0.01263 0.00000
v 0.03158 -0.00958 0.00000
v 0.03237 -0.00644 0.00000
v 0.03284 -0.00323 0.00000
v 0.03300 -0.00000 0.00000
v 0.00000 0.00000 0.12200
v 0.03300 0.00000 0.12200
v 0.03284 0.00323 0.12200
v 0.03237 0.00644 0.12200
v 0.03158 0.00958 0.12200
v 0.03049 0.01263 0.12200
v 0.02910 0.01556 0.12200
v 0.02744 0.01833 0.12200
v 0.02551 0.02093 0.12200
v 0.02333 0.02333 0.12200
v 0.02093 0.02551 0.12200
v 0.01833 0.02744 0.12200
v 0.01556 0.02910 0.12200
v 0.01263 0.03049 0.12200
v 0.00958 0.03158 0.12200
v 0.00644 0.03237 0.12200
v 0.00323 0.03284 0.12200
v 0.00000 0.03300 0.12200
v -0.00323 0.03284 0.12200
v -0.00644 0.03237 0.12200
v -0.00958 0.03158 0.12200
v -0.01263 0.03049 0.12200
v -0.01556 0.02910 0.12200
v -0.01833 0.02744 0.12200
v -0.02093 0.02551 0.12200
v -0.02333 0.02333 0.12200
v -0.02551 0.02093 0.12200
v -0.02744 0.01833 0.12200
v -0.02910 0.01556 0.12200
v -0.03049 0.01263 0.12200
v -0.03158 0.00958 0.12200
v -0.03237 0.00644 0.12200
v -0.03284 0.00323 0.12200
v -0.03300 0.00000 0.12200
v -0.03284 -0.00323 0.12200
v -0.03237 -0.00644 0.12200
v -0.03158 -0.00958 0.12200
v -0.03049 -0.01263 0.12200
v -0.02910 -0.01556 0.12200
v -0.02744 -0.01833 0.12200
v -0.02551 -0.02093 0.12200
v -0.02333 -0.02333 0.12200
v -0.02093 -0.02551 0.12200
v -0.01833 -0.02744 0.12200
v -0.01556 -0.02910 0.12200
v -0.01263 -0.03049 0.12200
v -0.00958 -0.03158 0.12200
v -0.00644 -0.03237 0.12200
v -0.00323 -0.03284 0.12200
v -0.00000 -0.03300 0.12200
v 0.00323 -0.03284 0.12200
v 0.00644 -0.03237 0.12200
v 0.00958 -0.03158 0.12200
v 0.01263 -0.03049 0.12200
v 0.01556 -0.02910 0.12200
v 0.01833 -0.02744 0.12200
v 0.02093 -0.02551 0.12200
v 0.02333 -0.02333 0.12200
v 0.02551 -0.02093 0.12200
v 0.02744 -0.01833 0.12200
v 0.02910 -0.01556 0.12200
v 0.03049 -0.01263 0.12200
v 0.03158 -0.00958 0.12200
v 0.03237 -0.00644 0.12200
v 0.03284 -0.00323 0.12200
v 0.03300 -0.00000 0.12200
vt 0.00000 0.12000
vt 0.00000 0.88000
vt 0.01562 0.12000
vt 0.01562 0.88000
vt 0.03125 0.12000
vt 0.03125 0.88000
vt 0.04688 0.12000
vt 0.04688 0.88000
vt 0.06250 0.12000
vt 0.06250 0.88000
vt 0.07812 0.12000
vt 0.07812 0.88000
vt 0.09375 0.12000
vt 0.09375 0.88000
vt 0.10938 0.12000
vt 0.10938 0.88000
vt 0.12500 0.12000
vt 0.12500 0.88000
vt 0.14062 0.12000
vt 0.14062 0.88000
vt 0.15625 0.12000
vt 0.15625 0.88000
vt 0.17188 0.12000
vt 0.17188 0.88000
vt 0.18750 0.12000
vt 0.18750 0.88000
vt 0.20312 0.12000
vt 0.20312 0.88000
vt 0.21875 0.12000
vt 0.21875 0.88000
vt 0.23438 0.12000
vt 0.23438 0.88000
vt 0.25000 0.12000
vt 0.25000 0.88000
vt 0.26562 0.12000
vt 0.26562 0.88000
vt 0.28125 0.12000
vt 0.28125 0.88000
vt 0.29688 0.12000
vt 0.29688 0.88000
vt 0.31250 0.12000
vt 0.31250 0.88000
vt 0.32812 0.12000
vt 0.32812 0.88000
vt 0.34375 0.12000
vt 0.34375 0.88000
vt 0.35938 0.12000
vt 0.35938 0.88000
vt 0.37500 0.12000
vt 0.37500 0.88000
vt 0.39062 0.12000
vt 0.39062 0.88000
vt 0.40625 0.12000
vt 0.40625 0.88000
vt 0.42188 0.12000
vt 0.42188 0.88000
vt 0.43750 0.12000
vt 0.43750 0.88000
vt 0.45312 0.12000
vt 0.45312 0.88000
vt 0.46875 0.12000
vt 0.46875 0.88000
vt 0.48438 0.12000
vt 0.48438 0.88000
vt 0.50000 0.12000
vt 0.50000 0.88000
vt 0.51562 0.12000
vt 0.51562 0.88000
vt 0.53125 0.12000
vt 0.53125 0.88000
vt 0.54688 0.12000
vt 0.54688 0.88000
vt 0.56250 0.12000
vt 0.56250 0.88000
vt 0.57812 0.12000
vt 0.57812 0.88000
vt 0.59375 0.12000
vt 0.59375 0.88000
vt 0.60938 0.12000
vt 0.60938 0.88000
vt 0.62500 0.12000
vt 0.62500 0.88000
vt 0.64062 0.12000
vt 0.64062 0.88000
vt 0.65625 0.12000
vt 0.65625 0.88000
vt 0.67188 0.12000
vt 0.67188 0.88000
vt 0.68750 0.12000
vt 0.68750 0.88000
vt 0.70312 0.12000
vt 0.70312 0.88000
vt 0.71875 0.12000
vt 0.71875 0.88000
vt 0.73438 0.12000
vt 0.73438 0.88000
vt 0.75000 0.12000
vt 0.75000 0.88000
vt 0.76562 0.12000
vt 0.76562 0.88000
vt 0.78125 0.12000
vt 0.78125 0.88000
vt 0.79688 0.12000
vt 0.79688 0.88000
vt 0.81250 0.12000
vt 0.81250 0.88000
vt 0.82812 0.12000
vt 0.82812 0.88000
vt 0.84375 0.12000
vt 0.84375 0.88000
vt 0.85938 0.12000
vt 0.85938 0.88000
vt 0.87500 0.12000
vt 0.87500 0.88000
vt 0.89062 0.12000
vt 0.89062 0.88000
vt 0.90625 0.12000
vt 0.90625 0.88000
vt 0.92188 0.12000
vt 0.92188 0.88000
vt 0.93750 0.12000
vt 0.93750 0.88000
vt 0.95312 0.12000
vt 0.95312 0.88000
vt 0.96875 0.12000
vt 0.96875 0.88000
vt 0.98438 0.12000
vt 0.98438 0.88000
vt 1.00000 0.12000
vt 1.00000 0.88000
vt 0.50000 0.03000
vt 0.50000 0.97000
vn 1.00000 0.00000 0.00000
vn 0.99518 0.09802 0.00000
vn 0.98079 0.19509 0.00000
vn 0.95694 0.29028 0.00000
vn 0.92388 0.38268 0.00000
vn 0.88192 0.47140 0.00000
vn 0.83147 0.55557 0.00000
vn 0.77301 0.63439 0.00000
vn 0.70711 0.70711 0.00000
vn 0.63439 0.77301 0.00000
vn 0.55557 0.83147 0.00000
vn 0.47140 0.88192 0.00000
vn 0.38268 0.92388 0.00000
vn 0.29028 0.95694 0.00000
vn 0.19509 0.98079 0.00000
vn 0.09802 0.99518 0.00000
vn 0.00000 1.00000 0.00000
vn -0.09802 0.99518 0.00000
vn -0.19509 0.98079 0.00000
vn -0.29028 0.95694 0.00000
vn -0.38268 0.92388 0.00000
vn -0.47140 0.88192 0.00000
vn -0.55557 0.83147 0.00000
vn -0.63439 0.77301 0.00000
vn -0.70711 0.70711 0.00000
vn -0.77301 0.63439 0.00000
vn -0.83147 0.55557 0.00000
vn -0.88192 0.47140 0.00000
vn -0.92388 0.38268 0.00000
vn -0.95694 0.29028 0.00000
vn -0.98079 0.19509 0.00000
vn -0.99518 0.09802 0.00000
vn -1.00000 0.00000 0.00000
vn -0.99518 -0.09802 0.00000
vn -0.98079 -0.19509 0.00000
vn -0.95694 -0.29028 0.00000
vn -0.92388 -0.38268 0.00000
vn -0.88192 -0.47140 0.00000
vn -0.83147 -0.55557 0.00000
vn -0.77301 -0.63439 0.00000
vn -0.70711 -0.70711 0.00000
vn -0.63439 -0.77301 0.00000
vn -0.55557 -0.83147 0.00000
vn -0.47140 -0.88192 0.00000
vn -0.38268 -0.92388 0.00000
vn -0.29028 -0.95694 0.00000
vn -0.19509 -0.98079 0.00000
vn -0.09802 -0.99518 0.00000
vn -0.00000 -1.00000 0.00000
vn 0.09802 -0.99518 0.00000
vn 0.19509 -0.98079 0.00000
vn 0.29028 -0.95694 0.00000
vn 0.38268 -0.92388 0.00000
vn 0.47140 -0.88192 0.00000
vn 0.55557 -0.83147 0.00000
vn 0.63439 -0.77301 0.00000
vn 0.70711 -0.70711 0.00000
vn 0.77301 -0.63439 0.00000
vn 0.83147 -0.55557 0.00000
vn 0.88192 -0.47140 0.00000
vn 0.92388 -0.38268 0.00000
vn 0.95694 -0.29028 0.00000
vn 0.98079 -0.19509 0.00000
vn 0.99518 -0.09802 0.00000
vn 1.00000 -0.00000 0.00000
vn 0.00000 0.00000 -1.00000
vn 0.00000 0.00000 1.00000
usemtl fanta_can_material
f 1/1/1 3/3/2 4/4/2
f 1/1/1 4/4/2 2/2/1
f 3/3/2 5/5/3 6/6/3
f 3/3/2 6/6/3 4/4/2
f 5/5/3 7/7/4 8/8/4
f 5/5/3 8/8/4 6/6/3
f 7/7/4 9/9/5 10/10/5
f 7/7/4 10/10/5 8/8/4
f 9/9/5 11/11/6 12/12/6
f 9/9/5 12/12/6 10/10/5
f 11/11/6 13/13/7 14/14/7
f 11/11/6 14/14/7 12/12/6
f 13/13/7 15/15/8 16/16/8
f 13/13/7 16/16/8 14/14/7
f 15/15/8 17/17/9 18/18/9
f 15/15/8 18/18/9 16/16/8
f 17/17/9 19/19/10 20/20/10
f 17/17/9 20/20/10 18/18/9
f 19/19/10 21/21/11 22/22/11
f 19/19/10 22/22/11 20/20/10
f 21/21/11 23/23/12 24/24/12
f 21/21/11 24/24/12 22/22/11
f 23/23/12 25/25/13 26/26/13
f 23/23/12 26/26/13 24/24/12
f 25/25/13 27/27/14 28/28/14
f 25/25/13 28/28/14 26/26/13
f 27/27/14 29/29/15 30/30/15
f 27/27/14 30/30/15 28/28/14
f 29/29/15 31/31/16 32/32/16
f 29/29/15 32/32/16 30/30/15
f 31/31/16 33/33/17 34/34/17
f 31/31/16 34/34/17 32/32/16
f 33/33/17 35/35/18 36/36/18
f 33/33/17 36/36/18 34/34/17
f 35/35/18 37/37/19 38/38/19
f 35/35/18 38/38/19 36/36/18
f 37/37/19 39/39/20 40/40/20
f 37/37/19 40/40/20 38/38/19
f 39/39/20 41/41/21 42/42/21
f 39/39/20 42/42/21 40/40/20
f 41/41/21 43/43/22 44/44/22
f 41/41/21 44/44/22 42/42/21
f 43/43/22 45/45/23 46/46/23
f 43/43/22 46/46/23 44/44/22
f 45/45/23 47/47/24 48/48/24
f 45/45/23 48/48/24 46/46/23
f 47/47/24 49/49/25 50/50/25
f 47/47/24 50/50/25 48/48/24
f 49/49/25 51/51/26 52/52/26
f 49/49/25 52/52/26 50/50/25
f 51/51/26 53/53/27 54/54/27
f 51/51/26 54/54/27 52/52/26
f 53/53/27 55/55/28 56/56/28
f 53/53/27 56/56/28 54/54/27
f 55/55/28 57/57/29 58/58/29
f 55/55/28 58/58/29 56/56/28
f 57/57/29 59/59/30 60/60/30
f 57/57/29 60/60/30 58/58/29
f 59/59/30 61/61/31 62/62/31
f 59/59/30 62/62/31 60/60/30
f 61/61/31 63/63/32 64/64/32
f 61/61/31 64/64/32 62/62/31
f 63/63/32 65/65/33 66/66/33
f 63/63/32 66/66/33 64/64/32
f 65/65/33 67/67/34 68/68/34
f 65/65/33 68/68/34 66/66/33
f 67/67/34 69/69/35 70/70/35
f 67/67/34 70/70/35 68/68/34
f 69/69/35 71/71/36 72/72/36
f 69/69/35 72/72/36 70/70/35
f 71/71/36 73/73/37 74/74/37
f 71/71/36 74/74/37 72/72/36
f 73/73/37 75/75/38 76/76/38
f 73/73/37 76/76/38 74/74/37
f 75/75/38 77/77/39 78/78/39
f 75/75/38 78/78/39 76/76/38
f 77/77/39 79/79/40 80/80/40
f 77/77/39 80/80/40 78/78/39
f 79/79/40 81/81/41 82/82/41
f 79/79/40 82/82/41 80/80/40
f 81/81/41 83/83/42 84/84/42
f 81/81/41 84/84/42 82/82/41
f 83/83/42 85/85/43 86/86/43
f 83/83/42 86/86/43 84/84/42
f 85/85/43 87/87/44 88/88/44
f 85/85/43 88/88/44 86/86/43
f 87/87/44 89/89/45 90/90/45
f 87/87/44 90/90/45 88/88/44
f 89/89/45 91/91/46 92/92/46
f 89/89/45 92/92/46 90/90/45
f 91/91/46 93/93/47 94/94/47
f 91/91/46 94/94/47 92/92/46
f 93/93/47 95/95/48 96/96/48
f 93/93/47 96/96/48 94/94/47
f 95/95/48 97/97/49 98/98/49
f 95/95/48 98/98/49 96/96/48
f 97/97/49 99/99/50 100/100/50
f 97/97/49 100/100/50 98/98/49
f 99/99/50 101/101/51 102/102/51
f 99/99/50 102/102/51 100/100/50
f 101/101/51 103/103/52 104/104/52
f 101/101/51 104/104/52 102/102/51
f 103/103/52 105/105/53 106/106/53
f 103/103/52 106/106/53 104/104/52
f 105/105/53 107/107/54 108/108/54
f 105/105/53 108/108/54 106/106/53
f 107/107/54 109/109/55 110/110/55
f 107/107/54 110/110/55 108/108/54
f 109/109/55 111/111/56 112/112/56
f 109/109/55 112/112/56 110/110/55
f 111/111/56 113/113/57 114/114/57
f 111/111/56 114/114/57 112/112/56
f 113/113/57 115/115/58 116/116/58
f 113/113/57 116/116/58 114/114/57
f 115/115/58 117/117/59 118/118/59
f 115/115/58 118/118/59 116/116/58
f 117/117/59 119/119/60 120/120/60
f 117/117/59 120/120/60 118/118/59
f 119/119/60 121/121/61 122/122/61
f 119/119/60 122/122/61 120/120/60
f 121/121/61 123/123/62 124/124/62
f 121/121/61 124/124/62 122/122/61
f 123/123/62 125/125/63 126/126/63
f 123/123/62 126/126/63 124/124/62
f 125/125/63 127/127/64 128/128/64
f 125/125/63 128/128/64 126/126/63
f 127/127/64 129/129/65 130/130/65
f 127/127/64 130/130/65 128/128/64
f 131/131/66 133/131/66 132/131/66
f 131/131/66 134/131/66 133/131/66
f 131/131/66 135/131/66 134/131/66
f 131/131/66 136/131/66 135/131/66
f 131/131/66 137/131/66 136/131/66
f 131/131/66 138/131/66 137/131/66
f 131/131/66 139/131/66 138/131/66
f 131/131/66 140/131/66 139/131/66
f 131/131/66 141/131/66 140/131/66
f 131/131/66 142/131/66 141/131/66
f 131/131/66 143/131/66 142/131/66
f 131/131/66 144/131/66 143/131/66
f 131/131/66 145/131/66 144/131/66
f 131/131/66 146/131/66 145/131/66
f 131/131/66 147/131/66 146/131/66
f 131/131/66 148/131/66 147/131/66
f 131/131/66 149/131/66 148/131/66
f 131/131/66 150/131/66 149/131/66
f 131/131/66 151/131/66 150/131/66
f 131/131/66 152/131/66 151/131/66
f 131/131/66 153/131/66 152/131/66
f 131/131/66 154/131/66 153/131/66
f 131/131/66 155/131/66 154/131/66
f 131/131/66 156/131/66 155/131/66
f 131/131/66 157/131/66 156/131/66
f 131/131/66 158/131/66 157/131/66
f 131/131/66 159/131/66 158/131/66
f 131/131/66 160/131/66 159/131/66
f 131/131/66 161/131/66 160/131/66
f 131/131/66 162/131/66 161/131/66
f 131/131/66 163/131/66 162/131/66
f 131/131/66 164/131/66 163/131/66
f 131/131/66 165/131/66 164/131/66
f 131/131/66 166/131/66 165/131/66
f 131/131/66 167/131/66 166/131/66
f 131/131/66 168/131/66 167/131/66
f 131/131/66 169/131/66 168/131/66
f 131/131/66 170/131/66 169/131/66
f 131/131/66 171/131/66 170/131/66
f 131/131/66 172/131/66 171/131/66
f 131/131/66 173/131/66 172/131/66
f 131/131/66 174/131/66 173/131/66
f 131/131/66 175/131/66 174/131/66
f 131/131/66 176/131/66 175/131/66
f 131/131/66 177/131/66 176/131/66
f 131/131/66 178/131/66 177/131/66
f 131/131/66 179/131/66 178/131/66
f 131/131/66 180/131/66 179/131/66
f 131/131/66 181/131/66 180/131/66
f 131/131/66 182/131/66 181/131/66
f 131/131/66 183/131/66 182/131/66
f 131/131/66 184/131/66 183/131/66
f 131/131/66 185/131/66 184/131/66
f 131/131/66 186/131/66 185/131/66
f 131/131/66 187/131/66 186/131/66
f 131/131/66 188/131/66 187/131/66
f 131/131/66 189/131/66 188/131/66
f 131/131/66 190/131/66 189/131/66
f 131/131/66 191/131/66 190/131/66
f 131/131/66 192/131/66 191/131/66
f 131/131/66 193/131/66 192/131/66
f 131/131/66 194/131/66 193/131/66
f 131/131/66 195/131/66 194/131/66
f 131/131/66 196/131/66 195/131/66
f 197/132/67 198/132/67 199/132/67
f 197/132/67 199/132/67 200/132/67
f 197/132/67 200/132/67 201/132/67
f 197/132/67 201/132/67 202/132/67
f 197/132/67 202/132/67 203/132/67
f 197/132/67 203/132/67 204/132/67
f 197/132/67 204/132/67 205/132/67
f 197/132/67 205/132/67 206/132/67
f 197/132/67 206/132/67 207/132/67
f 197/132/67 207/132/67 208/132/67
f 197/132/67 208/132/67 209/132/67
f 197/132/67 209/132/67 210/132/67
f 197/132/67 210/132/67 211/132/67
f 197/132/67 211/132/67 212/132/67
f 197/132/67 212/132/67 213/132/67
f 197/132/67 213/132/67 214/132/67
f 197/132/67 214/132/67 215/132/67
f 197/132/67 215/132/67 216/132/67
f 197/132/67 216/132/67 217/132/67
f 197/132/67 217/132/67 218/132/67
f 197/132/67 218/132/67 219/132/67
f 197/132/67 219/132/67 220/132/67
f 197/132/67 220/132/67 221/132/67
f 197/132/67 221/132/67 222/132/67
f 197/132/67 222/132/67 223/132/67
f 197/132/67 223/132/67 224/132/67
f 197/132/67 224/132/67 225/132/67
f 197/132/67 225/132/67 226/132/67
f 197/132/67 226/132/67 227/132/67
f 197/132/67 227/132/67 228/132/67
f 197/132/67 228/132/67 229/132/67
f 197/132/67 229/132/67 230/132/67
f 197/132/67 230/132/67 231/132/67
f 197/132/67 231/132/67 232/132/67
f 197/132/67 232/132/67 233/132/67
f 197/132/67 233/132/67 234/132/67
f 197/132/67 234/132/67 235/132/67
f 197/132/67 235/132/67 236/132/67
f 197/132/67 236/132/67 237/132/67
f 197/132/67 237/132/67 238/132/67
f 197/132/67 238/132/67 239/132/67
f 197/132/67 239/132/67 240/132/67
f 197/132/67 240/132/67 241/132/67
f 197/132/67 241/132/67 242/132/67
f 197/132/67 242/132/67 243/132/67
f 197/132/67 243/132/67 244/132/67
f 197/132/67 244/132/67 245/132/67
f 197/132/67 245/132/67 246/132/67
f 197/132/67 246/132/67 247/132/67
f 197/132/67 247/132/67 248/132/67
f 197/132/67 248/132/67 249/132/67
f 197/132/67 249/132/67 250/132/67
f 197/132/67 250/132/67 251/132/67
f 197/132/67 251/132/67 252/132/67
f 197/132/67 252/132/67 253/132/67
f 197/132/67 253/132/67 254/132/67
f 197/132/67 254/132/67 255/132/67
f 197/132/67 255/132/67 256/132/67
f 197/132/67 256/132/67 257/132/67
f 197/132/67 257/132/67 258/132/67
f 197/132/67 258/132/67 259/132/67
f 197/132/67 259/132/67 260/132/67
f 197/132/67 260/132/67 261/132/67
f 197/132/67 261/132/67 262/132/67
